<?xml version="1.0" standalone="no"?>
<!DOCTYPE svg PUBLIC "-//W3C//DTD SVG 20010904//EN"
 "http://www.w3.org/TR/2001/REC-SVG-20010904/DTD/svg10.dtd">
<svg version="1.0" xmlns="http://www.w3.org/2000/svg"
 width="1024.000000pt" height="1024.000000pt" viewBox="0 0 1024.000000 1024.000000"
 preserveAspectRatio="xMidYMid meet">

<g transform="translate(0.000000,1024.000000) scale(0.100000,-0.100000)"
fill="#009994" stroke="none">
<path d="M4384 7800 c-102 -15 -226 -67 -328 -137 -228 -158 -366 -444 -366
-764 0 -117 15 -239 29 -239 3 0 7 -22 8 -50 4 -87 95 -332 185 -495 93 -169
292 -442 423 -581 5 -6 23 -26 39 -45 80 -92 221 -245 233 -252 9 -6 40 20
102 85 102 106 101 90 3 193 -31 33 -97 106 -146 162 -49 56 -94 99 -99 96 -6
-4 -7 -1 -3 6 5 8 -12 35 -43 71 -28 32 -51 62 -51 67 0 4 -18 28 -40 51 -26
30 -43 41 -52 36 -10 -6 -11 -5 -1 7 9 12 6 23 -15 55 -45 66 -69 94 -76 86
-4 -3 -4 1 -1 9 3 9 -11 46 -33 85 -21 38 -49 90 -62 117 -13 26 -26 47 -29
47 -3 0 -7 10 -7 23 -1 12 -15 59 -32 105 -45 123 -64 252 -60 409 1 72 5 130
7 127 5 -5 53 125 54 148 1 9 4 15 8 12 4 -2 12 10 20 27 20 49 157 183 218
214 61 30 124 50 191 59 60 9 209 -18 256 -46 20 -12 46 -22 58 -23 11 -1 21
-7 21 -13 0 -6 20 -25 45 -43 25 -18 57 -44 73 -58 15 -14 33 -26 40 -26 6 -1
11 -6 10 -12 -3 -14 108 -133 123 -133 7 0 23 15 37 33 14 17 41 50 61 71 19
21 37 42 38 45 2 3 37 35 78 70 134 113 278 163 415 142 41 -6 98 -20 126 -31
29 -10 57 -16 62 -13 6 3 7 1 3 -5 -4 -7 -2 -12 3 -12 6 0 40 -24 75 -54 35
-30 68 -52 72 -48 5 4 6 3 2 -2 -4 -5 7 -29 24 -54 35 -51 87 -167 88 -196 0
-16 2 -17 18 -5 15 12 16 12 6 -1 -7 -9 -14 -71 -16 -150 -4 -118 -8 -143 -32
-200 -31 -75 -52 -118 -91 -183 l-27 -47 65 37 c36 21 63 42 60 47 -4 5 -1 6
5 2 6 -4 51 13 100 38 49 24 103 47 120 51 42 9 47 18 63 110 39 226 -7 463
-126 645 -43 66 -92 120 -80 88 4 -9 2 -19 -4 -23 -7 -4 -8 0 -4 11 5 14 3 16
-12 11 -15 -6 -16 -5 -5 8 11 13 10 19 -5 35 -10 11 -22 17 -27 14 -4 -3 -7 0
-6 6 4 17 -127 103 -202 133 -73 29 -133 44 -111 29 20 -14 -3 -24 -31 -13
-20 8 -20 10 -3 10 15 1 17 3 7 14 -21 20 -283 16 -359 -7 -35 -10 -60 -22
-58 -27 3 -4 -5 -13 -17 -20 -21 -11 -22 -11 -9 4 20 25 3 20 -74 -21 -38 -21
-69 -43 -68 -49 2 -7 -3 -10 -11 -7 -8 3 -41 -19 -76 -50 -62 -55 -75 -63 -82
-48 -9 22 -167 142 -185 142 -4 0 -2 -4 5 -9 11 -7 10 -9 -3 -14 -9 -4 -13 -3
-10 3 3 6 1 10 -5 10 -6 0 -9 4 -6 8 6 10 -54 45 -107 62 -29 9 -42 9 -50 1
-14 -14 -60 -15 -52 -1 4 6 -8 10 -27 11 l-33 1 30 7 c74 17 -147 26 -251 11z
m1163 -16 c-3 -3 -12 -4 -19 -1 -8 3 -5 6 6 6 11 1 17 -2 13 -5z m450 -60 c-3
-3 -12 -4 -19 -1 -8 3 -5 6 6 6 11 1 17 -2 13 -5z m-720 -49 c0 -8 -4 -12 -9
-9 -5 3 -6 10 -3 15 9 13 12 11 12 -6z m833 -10 c0 -2 -6 -8 -13 -14 -10 -8
-14 -7 -14 2 0 8 6 14 14 14 7 0 13 -1 13 -2z m-945 -69 c-9 -13 -24 -27 -33
-31 -10 -4 -5 6 12 24 36 37 42 39 21 7z m33 4 c-7 -10 -14 -17 -17 -15 -4 4
18 35 25 35 2 0 -1 -9 -8 -20z m1012 -14 c0 -3 -4 -8 -10 -11 -5 -3 -10 -1
-10 4 0 6 5 11 10 11 6 0 10 -2 10 -4z m-615 -16 c3 -5 2 -10 -4 -10 -5 0 -13
5 -16 10 -3 6 -2 10 4 10 5 0 13 -4 16 -10z m755 -195 c11 -13 10 -14 -4 -9
-9 3 -16 10 -16 15 0 13 6 11 20 -6z m-1220 -120 c11 -13 10 -14 -4 -9 -9 3
-16 10 -16 15 0 13 6 11 20 -6z m-1183 -472 c-3 -10 -5 -4 -5 12 0 17 2 24 5
18 2 -7 2 -21 0 -30z m2203 -127 c0 -3 -4 -8 -10 -11 -5 -3 -10 -1 -10 4 0 6
5 11 10 11 6 0 10 -2 10 -4z m-2403 -32 c1 -18 -2 -23 -9 -16 -6 6 -8 18 -5
26 9 22 12 20 14 -10z m241 -35 c-3 -8 -7 -3 -11 10 -4 17 -3 21 5 13 5 -5 8
-16 6 -23z m-184 -159 c11 0 13 -14 6 -55 -2 -11 -28 54 -28 70 0 6 2 4 5 -2
2 -7 10 -13 17 -13z m567 -567 c13 -16 12 -17 -3 -4 -10 7 -18 15 -18 17 0 8
8 3 21 -13z m123 -124 c-3 -5 -10 -7 -15 -3 -5 3 -7 10 -3 15 3 5 10 7 15 3 5
-3 7 -10 3 -15z m13 -31 c2 -17 0 -19 -7 -8 -5 8 -6 18 -4 22 8 12 10 10 11
-14z m163 -166 c0 -5 -7 -9 -15 -9 -8 0 -15 4 -15 9 0 4 7 8 15 8 8 0 15 -4
15 -8z m72 -156 c7 4 8 2 4 -5 -9 -13 -26 -5 -25 12 0 9 2 8 6 -1 2 -6 10 -9
15 -6z"/>
<path d="M4685 7780 c3 -5 10 -10 16 -10 5 0 9 5 9 10 0 6 -7 10 -16 10 -8 0
-12 -4 -9 -10z"/>
<path d="M6670 6689 c-76 -9 -231 -45 -259 -60 -9 -4 -42 -17 -75 -29 -65 -23
-99 -43 -89 -53 3 -4 1 -7 -6 -7 -7 0 -10 -4 -7 -8 2 -4 -4 -8 -15 -8 -19 0
-19 1 -3 13 52 38 -65 -20 -161 -80 -157 -98 -457 -351 -655 -552 l-85 -86 33
-30 c18 -16 29 -29 25 -29 -4 0 19 -27 52 -60 33 -33 64 -60 70 -60 17 0 56
45 48 54 -5 4 -3 6 3 4 6 -2 49 33 96 77 139 131 168 157 272 244 207 173 421
303 593 360 45 16 80 31 77 33 -2 3 8 3 23 1 22 -4 25 -2 13 6 -13 9 -12 11 4
11 20 0 20 0 0 16 -18 14 -18 15 4 4 12 -6 20 -15 18 -19 -3 -4 38 -6 92 -3
286 13 523 -158 593 -428 6 -25 11 -81 11 -125 0 -131 -55 -261 -158 -375 -20
-22 -32 -40 -28 -40 5 -1 0 -6 -12 -13 -38 -22 -87 -68 -80 -75 4 -3 11 0 15
7 6 9 11 10 15 2 7 -11 6 -12 -32 -16 -12 -1 -31 -10 -42 -20 -19 -17 -19 -19
-4 -37 10 -10 21 -18 25 -18 4 0 19 -10 32 -22 32 -31 67 -54 78 -51 5 2 8 0
7 -5 -2 -4 9 -20 24 -37 59 -67 76 -88 107 -140 43 -70 60 -121 71 -209 18
-142 -42 -309 -149 -416 -30 -30 -54 -59 -52 -65 1 -5 -1 -7 -5 -3 -4 4 -28
-8 -54 -27 -25 -19 -85 -47 -133 -63 -48 -16 -85 -31 -83 -33 7 -6 -286 8
-325 16 l-37 7 24 -103 c13 -57 24 -118 24 -136 0 -29 4 -33 36 -39 19 -3 99
-4 177 -1 160 6 240 24 372 86 87 41 239 156 229 173 -4 6 -3 8 3 5 19 -12
148 165 139 190 -4 9 -1 11 6 7 8 -5 9 -2 5 10 -4 9 -3 15 2 11 10 -5 28 39
58 140 23 82 24 295 0 381 -20 72 -76 199 -84 190 -3 -3 0 -12 6 -20 7 -8 10
-24 6 -35 -3 -11 -1 -29 5 -41 15 -29 5 -25 -15 6 -14 22 -15 28 -4 35 12 7
12 12 1 29 -7 11 -10 25 -6 31 6 11 -32 66 -83 119 -25 25 -32 40 -28 55 4 11
7 29 6 40 0 14 2 16 8 7 6 -10 17 -3 40 27 29 37 31 46 9 42 -4 0 -5 6 -1 14
4 13 8 13 21 3 13 -11 15 -10 9 5 -4 10 -3 16 2 13 13 -9 28 14 60 92 39 93
61 206 61 306 0 97 -31 249 -62 308 -12 24 -23 48 -24 53 -7 37 -134 215 -154
215 -5 0 -31 21 -57 48 -53 52 -149 112 -182 115 -11 1 -21 5 -21 9 0 5 -13 7
-29 6 -17 -1 -38 5 -49 15 -22 20 -124 41 -154 31 -14 -4 -17 -8 -8 -14 20
-12 -7 -22 -41 -15 -19 4 -29 12 -25 20 4 12 -25 26 -49 24 -5 -1 -44 -5 -85
-10z m-235 -79 c-27 -12 -43 -12 -25 0 8 5 22 9 30 9 10 0 8 -3 -5 -9z m1093
-403 c2 -10 -3 -17 -12 -17 -9 0 -16 2 -16 4 0 2 -3 12 -6 21 -5 13 -2 16 12
13 10 -2 20 -11 22 -21z m-35 -1070 c3 -8 -1 -14 -8 -14 -7 0 -11 6 -8 14 3 7
6 13 8 13 2 0 5 -6 8 -13z m-838 -937 c4 -6 -6 -7 -27 -3 -44 8 -48 13 -10 13
17 0 34 -4 37 -10z"/>
<path d="M3275 6680 c-350 -33 -632 -271 -725 -610 -42 -151 -26 -434 25 -454
8 -3 15 -13 15 -22 0 -14 2 -15 17 -3 15 13 15 12 2 -8 l-14 -23 -12 23 c-22
39 -14 7 13 -51 32 -69 63 -114 74 -107 5 3 12 0 16 -6 4 -8 3 -9 -4 -5 -23
14 -12 -10 16 -37 16 -15 32 -24 37 -20 4 5 5 2 1 -5 -5 -8 -1 -19 10 -27 11
-8 15 -15 10 -15 -5 0 -3 -7 4 -15 11 -13 10 -14 -2 -10 -36 14 -151 -158
-195 -290 -38 -115 -44 -298 -13 -416 25 -100 59 -181 71 -173 5 3 9 0 9 -6 0
-6 5 -8 12 -4 7 4 8 3 4 -5 -4 -6 -12 -9 -17 -5 -6 3 3 -18 18 -47 37 -70 183
-217 258 -259 155 -89 285 -124 455 -123 223 1 411 68 674 241 74 49 95 67 85
74 -11 8 -10 9 3 4 30 -9 197 133 413 349 221 222 277 286 272 305 -3 13 0 16
13 13 19 -5 114 93 104 108 -3 5 0 8 8 7 7 -2 12 3 10 10 -1 8 1 11 6 8 5 -3
59 48 121 113 l111 119 -31 31 c-17 17 -35 28 -41 25 -6 -4 -8 -2 -4 4 8 13
-92 124 -108 119 -13 -4 -15 -28 -4 -44 5 -6 5 -14 -2 -18 -6 -4 -9 -1 -8 7 2
8 -4 12 -17 10 -24 -5 -75 -63 -67 -77 3 -5 1 -7 -3 -2 -11 9 -95 -72 -95 -91
0 -7 -4 -11 -8 -8 -5 3 -73 -64 -152 -149 -78 -85 -226 -237 -329 -337 -102
-101 -185 -187 -183 -191 1 -5 -2 -5 -8 -2 -12 8 -62 -33 -55 -45 2 -4 -2 -7
-9 -7 -20 0 -146 -105 -139 -116 3 -6 1 -7 -5 -3 -6 3 -44 -15 -84 -40 -120
-77 -219 -122 -343 -154 -107 -28 -123 -30 -169 -20 -114 26 -173 44 -213 67
-24 13 -43 21 -43 18 0 -6 -48 37 -122 108 -32 30 -39 33 -36 15 2 -7 -4 -13
-12 -13 -8 0 -15 9 -15 20 0 11 6 19 13 17 6 -1 12 0 12 2 0 13 -55 99 -66
103 -8 3 -12 8 -10 12 5 7 -25 140 -35 156 -3 6 0 51 7 100 10 68 24 111 55
175 37 74 59 102 167 210 l124 124 -22 18 c-12 10 -27 15 -34 11 -6 -3 -8 -3
-4 1 9 11 -59 69 -72 61 -6 -4 -9 -1 -8 7 2 7 -4 12 -12 10 -8 -2 -12 0 -8 4
4 3 -13 30 -39 58 -25 28 -64 78 -85 111 -22 33 -37 50 -33 38 3 -12 1 -24 -5
-28 -14 -9 -28 4 -15 13 17 12 15 44 -6 111 -64 211 38 455 249 592 40 26 71
50 70 53 -2 2 1 8 6 13 6 5 6 2 1 -6 -6 -11 -4 -13 9 -8 73 28 151 40 256 40
72 -1 121 3 130 11 13 10 13 9 1 -6 -12 -16 -11 -18 6 -18 11 0 53 -9 93 -19
41 -11 75 -19 77 -18 1 2 -10 42 -25 90 l-27 87 -17 -28 c-12 -18 -18 -22 -18
-10 0 9 -6 19 -12 21 -10 4 -10 7 -1 14 7 5 17 20 23 33 10 24 10 24 5 -5 -4
-23 -3 -26 5 -13 7 11 7 32 -1 66 -9 45 -13 51 -42 56 -65 11 -225 14 -312 6z
m62 -16 c-3 -3 -12 -4 -19 -1 -8 3 -5 6 6 6 11 1 17 -2 13 -5z m-427 -1169 c0
-5 -5 -3 -10 5 -8 13 -10 12 -10 -4 0 -11 -3 -17 -6 -13 -3 3 -3 15 1 28 6 17
9 19 16 8 5 -8 9 -18 9 -24z m-363 -647 c-3 -7 -5 -2 -5 12 0 14 2 19 5 13 2
-7 2 -19 0 -25z m486 -574 c-3 -8 -10 -14 -15 -14 -6 0 -8 7 -4 15 3 8 2 15
-3 15 -5 0 -11 10 -14 21 -6 21 -6 21 18 -1 13 -12 21 -28 18 -36z m-253 -60
c0 -8 -19 -13 -24 -6 -3 5 1 9 9 9 8 0 15 -2 15 -3z"/>
<path d="M4090 6630 c0 -5 7 -27 16 -49 15 -38 44 -63 44 -38 0 8 4 6 10 -3 5
-8 10 -19 10 -25 0 -5 -5 -3 -10 5 -8 12 -10 12 -11 -5 l0 -20 -10 20 c-7 16
-8 14 -4 -9 9 -45 76 -186 86 -180 5 3 6 -1 3 -9 -5 -15 97 -90 122 -90 7 0
11 -4 9 -7 -6 -9 105 -93 122 -93 7 0 10 -3 8 -7 -7 -12 125 -121 137 -114 7
4 10 4 6 -1 -10 -11 11 -37 23 -29 5 3 9 2 8 -3 -2 -4 139 -150 312 -324 208
-209 320 -315 332 -313 9 1 15 -2 11 -7 -3 -5 -11 -6 -17 -3 -7 4 21 -27 62
-69 41 -42 79 -73 84 -70 6 3 7 2 4 -4 -8 -13 152 -185 165 -176 6 3 8 1 5 -4
-8 -13 17 -36 28 -25 5 4 5 1 1 -5 -6 -12 20 -44 119 -148 11 -12 38 -44 59
-73 22 -28 44 -48 49 -45 6 3 7 1 4 -4 -8 -13 27 -46 38 -36 4 5 5 2 1 -4 -8
-14 92 -155 104 -148 4 3 7 -1 6 -8 0 -6 21 -52 48 -100 35 -65 52 -87 64 -82
12 4 13 3 2 -10 -7 -9 -10 -18 -6 -22 3 -3 6 -1 6 5 0 7 7 12 15 12 17 0 20
-25 5 -35 -6 -3 -7 1 -4 12 5 17 5 17 -6 1 -8 -13 -8 -23 1 -39 6 -12 23 -70
38 -130 15 -60 30 -107 32 -105 2 3 3 -57 1 -132 -6 -306 -96 -514 -287 -659
-114 -87 -225 -117 -375 -101 -63 6 -191 55 -205 78 -4 6 -14 9 -23 5 -9 -3
-13 -3 -10 1 4 4 -12 22 -36 40 -24 18 -82 75 -130 126 l-87 93 -30 -33 c-17
-19 -28 -40 -25 -47 3 -9 0 -12 -8 -9 -7 3 -37 -21 -67 -53 -131 -140 -290
-223 -424 -223 -137 1 -271 54 -374 147 -33 29 -64 54 -68 54 -4 -1 -8 6 -8
14 0 9 -7 20 -15 25 -8 5 -11 10 -6 10 5 0 4 6 -2 13 -59 73 -107 246 -99 357
7 82 45 226 82 308 13 28 21 52 17 52 -4 0 0 5 8 10 8 5 11 10 5 10 -22 -1
-117 -68 -104 -73 9 -4 7 -6 -6 -7 -11 -1 -23 -2 -27 -1 -5 0 -8 -4 -8 -10 0
-5 -4 -8 -8 -5 -10 6 -137 -56 -162 -79 -14 -13 -19 -13 -23 -3 -3 8 -10 1
-17 -17 -9 -20 -13 -86 -14 -200 -1 -161 1 -175 27 -255 45 -136 164 -339 189
-323 6 3 8 2 5 -4 -8 -13 74 -91 148 -141 132 -89 278 -132 444 -132 187 0
339 53 498 175 l73 55 62 -51 c74 -59 239 -144 268 -136 13 3 18 1 13 -6 -4
-6 0 -8 9 -4 9 3 19 2 24 -3 15 -14 169 -31 226 -25 98 11 173 28 245 57 87
34 143 66 143 81 0 6 3 7 6 4 9 -8 69 40 140 111 211 213 317 566 270 901 -23
159 -70 326 -88 315 -7 -4 -8 -2 -4 5 5 7 -2 38 -15 69 -21 53 -34 79 -94 189
-38 69 -153 230 -192 268 -20 19 -33 35 -29 35 5 0 -15 27 -44 60 -29 33 -57
57 -63 53 -6 -3 -7 -1 -3 5 4 6 -10 30 -32 54 -21 24 -52 58 -67 76 -16 18
-35 30 -42 27 -8 -2 -11 0 -8 5 5 9 -6 14 -26 12 -3 -1 -6 6 -6 13 0 12 4 12
16 3 14 -10 -27 35 -93 102 -10 11 -23 17 -27 14 -4 -2 -11 1 -15 7 -5 8 -3 9
6 4 8 -5 11 -3 8 6 -5 14 -25 19 -41 11 -4 -2 -2 -11 5 -20 12 -15 11 -16 -4
-3 -10 7 -15 18 -11 25 13 20 11 35 -7 51 -11 10 -24 14 -31 9 -8 -5 -10 -3
-4 5 4 8 -3 24 -20 41 -25 27 -28 27 -46 12 -11 -10 -28 -17 -37 -18 -15 -1
-18 7 -18 46 1 27 5 46 9 43 5 -3 6 -11 3 -19 -3 -8 0 -11 10 -7 12 4 4 17
-33 56 -87 91 -116 117 -97 85 5 -8 2 -9 -11 -4 -15 5 -16 4 -5 -9 11 -13 10
-14 -5 -8 -14 5 -17 3 -13 -9 4 -8 1 -15 -6 -15 -7 0 -12 10 -10 23 1 12 -4
25 -12 28 -8 3 -14 10 -14 17 0 6 7 9 15 5 8 -3 14 0 12 7 -1 7 5 11 13 9 8
-2 -48 59 -124 136 -94 95 -144 139 -155 135 -12 -4 -13 -2 -3 4 16 12 -162
188 -180 177 -7 -4 -10 -3 -5 1 12 13 -33 54 -52 48 -9 -4 -13 -3 -9 2 9 10
-9 45 -23 45 -6 0 -7 -5 -3 -12 4 -7 3 -8 -5 -4 -6 4 -9 11 -6 15 7 13 -88 88
-107 85 -9 -1 -22 4 -29 12 -8 10 -8 14 0 14 6 0 11 -5 11 -12 0 -6 3 -8 7 -5
8 9 -27 47 -44 47 -7 0 -13 4 -13 9 0 10 -215 148 -265 170 -79 35 -96 41 -90
32 3 -6 14 -11 23 -11 11 0 13 -3 6 -10 -15 -15 -44 -1 -44 20 0 13 -14 23
-47 34 -55 19 -53 19 -53 6z m677 -434 c-1 -6 6 -10 15 -10 10 1 16 -2 13 -6
-8 -13 -55 -8 -55 5 0 8 -6 15 -12 18 -7 2 -1 4 14 4 15 0 26 -5 25 -11z
m-213 -102 c3 -8 2 -12 -4 -9 -6 3 -10 10 -10 16 0 14 7 11 14 -7z m344 -39
c-3 -3 -9 2 -12 12 -6 14 -5 15 5 6 7 -7 10 -15 7 -18z m30 0 c-3 -3 -9 2 -12
12 -6 14 -5 15 5 6 7 -7 10 -15 7 -18z m238 -232 c17 -27 17 -28 -1 -13 -17
14 -18 13 -11 -5 4 -11 3 -16 -1 -11 -7 6 -13 56 -7 56 1 0 10 -12 20 -27z
m-28 -48 c-3 -3 -9 2 -12 12 -6 14 -5 15 5 6 7 -7 10 -15 7 -18z m358 -617 c0
-10 -1 -18 -3 -18 -1 0 -7 8 -12 18 -7 13 -6 19 2 19 7 0 13 -9 13 -19z m683
-436 c7 -13 6 -19 -2 -19 -7 0 -13 9 -13 19 0 10 1 18 3 18 1 0 7 -8 12 -18z
m-135 -188 c3 -8 2 -12 -4 -9 -6 3 -10 10 -10 16 0 14 7 11 14 -7z m-2291
-619 c-3 -9 -8 -14 -10 -11 -3 3 -2 9 2 15 9 16 15 13 8 -4z m197 -71 c0 -8
-19 -13 -24 -6 -3 5 1 9 9 9 8 0 15 -2 15 -3z m973 -574 c-3 -11 -9 -20 -13
-20 -5 0 -6 9 -3 20 3 11 9 20 13 20 5 0 6 -9 3 -20z m-748 -70 c17 -19 17
-19 -8 -7 -14 6 -23 15 -21 19 7 11 9 10 29 -12z m-238 -95 c0 -8 -4 -12 -9
-9 -5 3 -6 10 -3 15 9 13 12 11 12 -6z m646 -22 c-7 -2 -19 -2 -25 0 -7 3 -2
5 12 5 14 0 19 -2 13 -5z"/>
<path d="M5450 5473 c0 -21 21 -26 38 -9 9 9 11 16 5 16 -6 0 -14 -6 -16 -12
-4 -10 -8 -9 -16 2 -7 9 -11 10 -11 3z"/>
<path d="M5062 5057 c-35 -36 -41 -53 -16 -43 9 3 12 2 9 -5 -4 -6 -13 -8 -21
-5 -8 3 -24 -4 -35 -17 -11 -12 -34 -36 -50 -53 l-31 -31 169 -169 c251 -253
293 -290 305 -273 8 11 9 10 4 -4 -7 -21 73 -89 244 -209 154 -108 444 -247
467 -224 15 15 -59 264 -90 304 -6 7 -24 20 -41 29 -21 10 -27 11 -18 2 15
-16 16 -29 1 -29 -5 0 -7 5 -3 11 4 8 -1 9 -17 4 -13 -3 -19 -3 -14 2 13 10
18 36 6 29 -5 -4 -16 2 -23 12 -7 10 -38 35 -68 55 -40 27 -56 33 -62 24 -6
-8 -8 -5 -6 8 2 14 -2 20 -14 19 -10 -1 -16 2 -13 6 5 7 -133 125 -146 125 -4
0 -15 10 -25 22 -11 11 -44 42 -74 68 -30 26 -101 92 -157 147 -86 85 -103 97
-111 82 -5 -9 -14 -14 -21 -10 -16 10 -14 26 3 20 9 -4 14 0 12 11 -3 19 -106
125 -121 125 -6 0 -25 -15 -43 -33z m49 0 c-10 -9 -11 -8 -5 6 3 10 9 15 12
12 3 -3 0 -11 -7 -18z m262 -253 c-3 -8 -7 -14 -10 -14 -3 0 -3 7 1 15 7 18
-5 20 -23 3 -11 -11 -11 -9 0 9 9 16 17 19 25 12 7 -6 10 -17 7 -25z m31 -53
c15 -17 15 -19 1 -25 -10 -3 -14 -2 -10 5 4 5 1 16 -5 24 -18 22 -6 18 14 -4z
m26 9 c0 -5 -2 -10 -4 -10 -3 0 -8 5 -11 10 -3 6 -1 10 4 10 6 0 11 -4 11 -10z
m-163 -145 c0 -8 -4 -12 -9 -9 -5 3 -6 10 -3 15 9 13 12 11 12 -6z m811 -493
c2 -7 -3 -12 -12 -12 -9 0 -16 7 -16 16 0 17 22 14 28 -4z"/>
</g>
</svg>
